<svg height="57" viewBox="0 0 48 57" width="48" xmlns="http://www.w3.org/2000/svg"><g id="Page-1" fill="none" fill-rule="evenodd"><g id="046---Supplies" fill="rgb(0,0,0)" fill-rule="nonzero"><rect id="Rectangle-path" height="11" rx="1" width="4" x="3" y="38"/><rect id="Rectangle-path" height="11" rx="1" width="4" x="3" y="17"/><rect id="Rectangle-path" height="11" rx="1" width="4" x="41" y="38"/><rect id="Rectangle-path" height="11" rx="1" width="4" x="41" y="17"/><path id="Shape" d="m11.5 7h8c.8284271 0 1.5-.67157288 1.5-1.5s-.6715729-1.5-1.5-1.5h-7.5c-.5522847 0-1-.44771525-1-1s.4477153-1 1-1h8c.2603843.00238519.5105442-.10121638.693-.287.1964139-.18506688.307531-.44313358.307-.713 0-.55228475-.4477153-1-1-1h-8.5c-1.93299662 0-3.5 1.56700338-3.5 3.5s1.56700338 3.5 3.5 3.5z"/><path id="Shape" d="m30.5 7h8c.8284271 0 1.5-.67157288 1.5-1.5s-.6715729-1.5-1.5-1.5h-7.5c-.5522847 0-1-.44771525-1-1s.4477153-1 1-1h8c.2603843.00238519.5105442-.10121638.693-.287.1964139-.18506688.307531-.44313358.307-.713 0-.55228475-.4477153-1-1-1h-8.5c-1.9329966 0-3.5 1.56700338-3.5 3.5s1.5670034 3.5 3.5 3.5z"/><path id="Shape" d="m48 14v-4c0-.55228475-.4477153-1-1-1h-46c-.55228475 0-1 .44771525-1 1v4c0 .5522847.44771525 1 1 1h3.786l17.405 7.786-4.491 2.244c-.2387486.0225431-.4738343.0742619-.7.154v-.184c0-1.6568542-1.3431458-3-3-3h-1c-1.6568542 0-3 1.3431458-3 3v5h-9c-.55228475 0-1 .4477153-1 1v4c0 .5522847.44771525 1 1 1h4.764l15.713 7.857-14.706 7.143h-5.771c-.55228475 0-1 .4477153-1 1v4c0 .5522847.44771525 1 1 1h46c.5522847 0 1-.4477153 1-1v-4c0-.5522847-.4477153-1-1-1h-9v-5c0-1.6568542-1.3431458-3-3-3h-1c-1.6568542 0-3 1.3431458-3 3v.184c-.2261657-.0797381-.4612514-.1314569-.7-.154l-4.3-2.148 16.229-7.882h4.771c.5522847 0 1-.4477153 1-1v-4c0-.5522847-.4477153-1-1-1h-3.786l-16.349-7.314 15.371-7.686h4.764c.5522847 0 1-.4477153 1-1zm-44-2c0-.5522847.44771525-1 1-1s1 .4477153 1 1-.44771525 1-1 1-1-.4477153-1-1zm14 15h4c.5522847 0 1 .4477153 1 1v1c0 .5522847-.4477153 1-1 1h-4c-.5522847 0-1-.4477153-1-1v-1c0-.5522847.4477153-1 1-1zm-6-2c0-.5522847.4477153-1 1-1h1c.5522847 0 1 .4477153 1 1v5h-3zm-8 8c0-.5522847.44771525-1 1-1s1 .4477153 1 1-.44771525 1-1 1-1-.4477153-1-1zm1 22c-.55228475 0-1-.4477153-1-1s.44771525-1 1-1 1 .4477153 1 1-.44771525 1-1 1zm38-2c.5522847 0 1 .4477153 1 1s-.4477153 1-1 1-1-.4477153-1-1 .4477153-1 1-1zm-10-7c0-.5522847.4477153-1 1-1h1c.5522847 0 1 .4477153 1 1v5h-3zm-2 3v1c0 .5522847-.4477153 1-1 1h-4c-.5522847 0-1-.4477153-1-1v-1c0-.5522847.4477153-1 1-1h4c.5522847 0 1 .4477153 1 1zm-5.2-2.98c-1.5719481.1020656-2.7959441 1.404747-2.8 2.98v1c.0033144.3414397.0655622.679743.184 1h-11.837l12.385-6.016zm-2.057-3.265-13.507-6.755h27.417zm20.257-9.755c0 .5522847-.4477153 1-1 1s-1-.4477153-1-1 .4477153-1 1-1 1 .4477153 1 1zm-5.685-3h-13.5c.1187789-.3201966.1813653-.6585017.185-1v-1c-.0040559-1.575253-1.2280519-2.8779344-2.8-2.98l2.355-1.178zm-13.815-8.37-14.815-6.63h28.079zm18.5-8.63c-.5522847 0-1-.4477153-1-1s.4477153-1 1-1 1 .4477153 1 1-.4477153 1-1 1z"/></g></g></svg>