<svg id="Layer_3" enable-background="new 0 0 64 64" height="512" viewBox="0 0 64 64" width="512" xmlns="http://www.w3.org/2000/svg"><g><path d="m37 35h20v2h-20z"/><circle cx="16" cy="26" r="1"/><path d="m22 12.261v-3.261h-12v3.261c1.839-.806 3.866-1.261 6-1.261s4.161.455 6 1.261z"/><path d="m31 33h4v6h-4z"/><path d="m16 33c3.859 0 7-3.14 7-7s-3.141-7-7-7-7 3.14-7 7 3.141 7 7 7zm0-10c1.654 0 3 1.346 3 3s-1.346 3-3 3-3-1.346-3-3 1.346-3 3-3z"/><path d="m7 37h4v2h-4z"/><path d="m5 36c0-.552.447-1 1-1h6c.553 0 1 .448 1 1v3h16v-13c0-7.168-5.832-13-13-13s-13 5.832-13 13v13h2zm11-19c4.963 0 9 4.038 9 9s-4.037 9-9 9-9-4.038-9-9 4.037-9 9-9z"/><path d="m59 35h2v6h-2z"/><path d="m57 51h-2v-4h-4v6h-2v-6h-4v4h-2v-4h-4v4h-2v-4h-4v4h-2v-4h-4v6h-2v-6h-4v4h-2v-4h-4v4h-2v-4h-4v4h-2v-4h-4v8h58v-8h-4z"/></g></svg>