<svg height="512pt" viewBox="-73 0 512 512" width="512pt" xmlns="http://www.w3.org/2000/svg"><path d="m182.855469 0c-4.5 0-8.882813.125-13.285157.230469-63.980468 2.1875-105.570312 19.835937-105.570312 31.769531 0 12.742188 47.402344 32 118.855469 32 71.457031 0 118.859375-19.257812 118.859375-32 0-11.933594-41.589844-29.582031-105.570313-31.769531-4.402343-.105469-8.785156-.230469-13.289062-.230469zm45.441406 16.070312c.589844 2.351563.222656 4.84375-1.027344 6.921876-1.25 2.082031-3.273437 3.578124-5.625 4.160156l-1.109375.277344 1.109375.273437c3.167969.789063 5.671875 3.210937 6.570313 6.351563.902344 3.140624.054687 6.519531-2.214844 8.867187-2.265625 2.351563-5.617188 3.308594-8.785156 2.519531l-34.359375-8.59375-34.355469 8.59375c-4.898438 1.222656-9.859375-1.757812-11.082031-6.65625-1.222657-4.898437 1.753906-9.859375 6.652343-11.082031l1.109376-.273437-1.109376-.277344c-4.898437-1.222656-7.875-6.183594-6.652343-11.082032 1.222656-4.898437 6.183593-7.875 11.082031-6.652343l34.355469 8.59375 34.359375-8.59375c2.351562-.59375 4.84375-.226563 6.925781 1.023437 2.078125 1.246094 3.574219 3.273438 4.15625 5.628906zm0 0"/><path d="m315.527344 18.417969c2.824218 3.972656 4.382812 8.707031 4.472656 13.582031 0 33.003906-68.992188 50.285156-137.144531 50.285156-68.148438 0-137.140625-17.28125-137.140625-50.285156.089844-4.875 1.648437-9.609375 4.472656-13.582031-31.378906 10.386719-50.1875 23.769531-50.1875 36.4375 0 25.894531 78.195312 54.859375 182.855469 54.859375 104.664062 0 182.859375-28.964844 182.859375-54.859375 0-12.667969-18.808594-26.050781-50.1875-36.4375zm0 0"/><path d="m182.855469 164.570312c-62.027344 0-126.492188-10.386718-165.226563-30.171874l46.289063 339.796874c.03125.21875-.054688.414063-.039063.628907.015625.21875.121094.390625.121094.605469 0 14.910156 46.304688 36.570312 118.855469 36.570312 72.554687 0 118.859375-21.660156 118.859375-36.570312 0-.214844.105468-.390626.121094-.601563.011718-.210937-.070313-.414063-.042969-.632813l46.292969-339.796874c-38.734376 19.785156-103.199219 30.171874-165.230469 30.171874zm-134.390625 37.886719-2.652344-18.285156c-.5625-3.277344.699219-6.597656 3.289062-8.679687 2.589844-2.078126 6.105469-2.589844 9.183594-1.332032 3.074219 1.257813 5.226563 4.085938 5.617188 7.382813l2.652344 18.285156c.351562 2.402344-.265626 4.84375-1.71875 6.785156-1.449219 1.945313-3.613282 3.230469-6.011719 3.574219-.4375.066406-.882813.101562-1.324219.097656-4.539062-.003906-8.386719-3.335937-9.035156-7.828125zm35.117187 181.453125c-5 .703125-9.625-2.765625-10.347656-7.761718l-19.566406-137.140626c-.714844-5 2.757812-9.632812 7.753906-10.347656 5-.714844 9.632813 2.757813 10.347656 7.757813l19.566407 137.144531c.710937 4.996094-2.757813 9.625-7.753907 10.347656zm0 0"/><path d="m365.714844 91.429688v-4.671876c-33.992188 26.96875-110.117188 41.242188-182.859375 41.242188-72.738281 0-148.863281-14.273438-182.855469-41.242188v4.671876c0 25.890624 78.195312 54.855468 182.855469 54.855468 104.664062 0 182.859375-28.964844 182.859375-54.855468zm0 0"/></svg>