<svg id="Layer_1" enable-background="new 0 0 512.02 512.02" height="512" viewBox="0 0 512.02 512.02" width="512" xmlns="http://www.w3.org/2000/svg"><g><path d="m436.008 102.02h-300c-8.284 0-15 6.716-15 15v380c0 8.284 6.716 15 15 15h300c8.284 0 15-6.716 15-15v-380c0-8.285-6.716-15-15-15zm-189.999 99.999h3.787l-2.678-2.678c-5.858-5.857-5.858-15.355 0-21.213 5.857-5.857 15.355-5.857 21.213 0l2.678 2.678v-3.786c0-8.284 6.716-15 15-15s15 6.716 15 15v3.786l2.678-2.678c5.857-5.857 15.355-5.857 21.213 0s5.858 15.355 0 21.213l-2.678 2.678h3.787c8.284 0 15 6.716 15 15s-6.716 15-15 15h-3.787l2.678 2.678c5.858 5.857 5.858 15.355 0 21.213-2.929 2.929-6.768 4.394-10.606 4.394s-7.678-1.465-10.606-4.394l-2.678-2.678v3.787c0 8.284-6.716 15-15 15s-15-6.716-15-15v-3.787l-2.678 2.678c-2.929 2.929-6.768 4.394-10.606 4.394s-7.678-1.465-10.606-4.394c-5.858-5.857-5.858-15.355 0-21.213l2.678-2.678h-3.787c-8.284 0-15-6.716-15-15s6.714-15 14.998-15zm129.999 250h-179.999c-8.284 0-15-6.716-15-15s6.716-15 15-15h179.999c8.284 0 15 6.716 15 15s-6.716 15-15 15zm0-60.001h-179.999c-8.284 0-15-6.716-15-15s6.716-15 15-15h179.999c8.284 0 15 6.716 15 15s-6.716 15-15 15zm0-59.999h-179.999c-8.284 0-15-6.716-15-15s6.716-15 15-15h179.999c8.284 0 15 6.716 15 15s-6.716 15-15 15z"/><path d="m371.57 0h-295.559c-8.284 0-15 6.716-15 15v400.02c0 8.284 6.716 15 15 15h14.997v-313c0-21.298 14.877-39.174 34.781-43.815.396-.171 160.384-47.791 245.781-73.205z"/><path d="m400.559 72.02.204-49.022c.097-.155.184-.314.275-.471l-166.423 49.493z"/></g></svg>